<svg viewBox="0 0 320 560" fill="none" xmlns="http://www.w3.org/2000/svg"><g clip-path="url(#a)" fill="#fff"><path d="M235.293 374.12h-9.413v9.413h9.413v-9.413ZM216.473 387.06a3.534 3.534 0 0 1-4.222 3.465 3.521 3.521 0 0 1-1.809-.967 3.521 3.521 0 0 1-.967-1.809 3.528 3.528 0 0 1 3.465-4.222h3.533v-9.407h-3.533a12.94 12.94 0 1 0 12.94 12.94v-3.533h-9.407v3.533ZM229.413 369.413H240V360h-10.587a12.957 12.957 0 0 0-12.94 12.94v1.18h9.407v-1.18a3.535 3.535 0 0 1 3.533-3.527Z"/></g><g clip-path="url(#b)" fill="#fff"><path d="M206.413 547.477c.239-.239.564-.373.902-.373h31.182c.568 0 .853.688.451 1.09l-6.162 6.166a1.27 1.27 0 0 1-.901.374h-31.183a.638.638 0 0 1-.45-1.09l6.161-6.167ZM206.413 524.439c.239-.239.564-.374.902-.374h31.182a.64.64 0 0 1 .451 1.091l-6.162 6.166a1.275 1.275 0 0 1-.901.374h-31.183a.638.638 0 0 1-.45-1.09l6.161-6.167ZM232.786 535.885a1.274 1.274 0 0 0-.901-.373h-31.183a.638.638 0 0 0-.45 1.09l6.161 6.166c.239.24.564.374.902.374h31.182a.639.639 0 0 0 .451-1.09l-6.162-6.167Z"/></g><g clip-path="url(#c)"><path d="m312.106 442.031-8.362 12.413a.889.889 0 0 0 1.32 1.167l8.23-7.139a.34.34 0 0 1 .361-.055.34.34 0 0 1 .195.308v22.35a.335.335 0 0 1-.22.313.341.341 0 0 1-.2.009.339.339 0 0 1-.169-.108l-24.878-29.781a4.258 4.258 0 0 0-3.252-1.508h-.87a4.261 4.261 0 0 0-4.261 4.261v31.478a4.262 4.262 0 0 0 7.894 2.23l8.362-12.413a.889.889 0 0 0-1.32-1.167l-8.23 7.139a.34.34 0 0 1-.361.055.33.33 0 0 1-.195-.308v-22.356a.335.335 0 0 1 .22-.313.333.333 0 0 1 .369.1l24.875 29.786a4.258 4.258 0 0 0 3.253 1.508h.869a4.272 4.272 0 0 0 3.015-1.247 4.26 4.26 0 0 0 1.249-3.014v-31.478a4.262 4.262 0 0 0-7.894-2.23Z" fill="#fff"/></g><path fill-rule="evenodd" clip-rule="evenodd" d="M222.261 73.937c.812-3.534 1.323-8.462 1.323-13.937s-.511-10.403-1.323-13.937c-.407-1.774-.88-3.146-1.372-4.052-.246-.453-.473-.744-.66-.91-.18-.16-.267-.16-.273-.16-.006 0-.093 0-.273.16-.187.166-.414.457-.661.91-.491.906-.964 2.278-1.372 4.052-.812 3.534-1.322 8.462-1.322 13.937s.51 10.403 1.322 13.937c.408 1.775.881 3.146 1.372 4.052.247.453.474.744.661.91.18.16.267.16.273.16.003 0 .091.003.273-.16.187-.166.414-.457.66-.91.492-.906.965-2.278 1.372-4.052ZM219.956 80c2.538 0 4.596-8.954 4.596-20s-2.058-20-4.596-20c-2.538 0-4.596 8.954-4.596 20s2.058 20 4.596 20Z" fill="#fff"/><path fill-rule="evenodd" clip-rule="evenodd" d="M208.7 68.91c3.553-1.082 8.195-3.116 13.069-5.853 4.875-2.738 9.007-5.632 11.747-8.083 1.376-1.231 2.361-2.315 2.921-3.182.281-.434.426-.77.481-1.012.052-.231.008-.305.005-.31-.003-.004-.046-.078-.278-.15-.242-.074-.614-.12-1.141-.1-1.052.038-2.51.326-4.294.87-3.552 1.082-8.194 3.116-13.069 5.853-4.874 2.738-9.006 5.632-11.746 8.083-1.376 1.231-2.361 2.315-2.921 3.182-.281.434-.426.77-.481 1.012-.053.231-.008.305-.006.31.002.002.044.078.279.15.242.074.614.12 1.141.1 1.052-.038 2.51-.326 4.293-.87ZM202.15 70c1.269 2.138 10.269-.606 20.103-6.128 9.834-5.523 16.777-11.734 15.508-13.872-1.269-2.138-10.27.605-20.104 6.128-9.833 5.523-16.776 11.734-15.507 13.872Z" fill="#fff"/><path fill-rule="evenodd" clip-rule="evenodd" d="M233.516 65.026c-2.74-2.45-6.872-5.345-11.746-8.082-4.875-2.738-9.517-4.772-13.07-5.855-1.783-.543-3.241-.831-4.293-.87-.527-.019-.899.027-1.141.102-.232.07-.275.145-.278.15-.003.004-.047.078.005.31.055.24.2.577.481 1.011.56.867 1.545 1.951 2.921 3.182 2.74 2.451 6.872 5.345 11.746 8.083 4.875 2.737 9.517 4.77 13.069 5.854 1.784.543 3.242.831 4.294.87.527.019.899-.027 1.141-.101.232-.072.275-.146.278-.15.002-.004.048-.076-.005-.31-.055-.241-.2-.578-.481-1.012-.56-.867-1.545-1.95-2.921-3.182ZM237.761 70c1.269-2.138-5.674-8.349-15.508-13.872-9.833-5.522-18.834-8.266-20.103-6.128-1.269 2.138 5.674 8.349 15.508 13.872 9.833 5.523 18.834 8.266 20.103 6.128Z" fill="#fff"/><path d="M219.928 62.353c1.336 0 2.419-1.053 2.419-2.353 0-1.3-1.083-2.353-2.419-2.353S217.509 58.7 217.509 60c0 1.3 1.083 2.353 2.419 2.353ZM229.966 52.47c.868 0 1.572-.684 1.572-1.529 0-.845-.704-1.53-1.572-1.53-.868 0-1.572.685-1.572 1.53s.704 1.53 1.572 1.53ZM206.987 57.412c.869 0 1.573-.685 1.573-1.53 0-.844-.704-1.529-1.573-1.529-.868 0-1.572.685-1.572 1.53 0 .844.704 1.529 1.572 1.529ZM216.906 74.588c.868 0 1.572-.684 1.572-1.53 0-.844-.704-1.529-1.572-1.529-.869 0-1.573.685-1.573 1.53 0 .844.704 1.53 1.573 1.53Z" fill="#fff"/><g clip-path="url(#d)" fill="#fff"><path d="M292.911 48.507a12.876 12.876 0 0 1 14.055 0l4.503-4.481a18.528 18.528 0 0 0-23.061 0l4.503 4.48ZM288.47 67.007a12.67 12.67 0 0 1 0-14.068l-4.49-4.481a18.71 18.71 0 0 0 0 23.074l4.49-4.525ZM307.005 71.497a12.505 12.505 0 0 1-7.022 2.214 12.181 12.181 0 0 1-7.085-2.179l-4.49 4.455a18.203 18.203 0 0 0 11.628 4.012A18.635 18.635 0 0 0 311.5 75.96l-4.495-4.463ZM311.433 52.935a12.445 12.445 0 0 1 2.126 7.164 12.583 12.583 0 0 1-2.126 6.908l4.495 4.525c2.584-3.266 4-7.303 4.025-11.468a18.206 18.206 0 0 0-4.012-11.61l-4.508 4.48ZM313.01 73.463a.327.327 0 0 1-.093-.257.348.348 0 0 1 .093-.24.34.34 0 0 1 .474 0 .322.322 0 0 1 .093.24.352.352 0 0 1-.093.24.33.33 0 0 1-.443 0l-.031.017Zm-.952-.943a.325.325 0 0 1-.086-.222c0-.082.03-.16.086-.221a.34.34 0 0 1 .474 0 .323.323 0 0 1 .093.239.352.352 0 0 1-.093.24.33.33 0 0 1-.24.092.365.365 0 0 1-.23-.097l-.004-.031Zm-.961-.948a.33.33 0 0 1 0-.443.34.34 0 0 1 .474 0 .33.33 0 0 1 0 .443.33.33 0 0 1-.239.093.314.314 0 0 1-.235-.093Zm-.93-.952a.322.322 0 0 1-.093-.239c0-.089.033-.174.093-.24a.342.342 0 0 1 .474 0 .338.338 0 0 1-.474.478Zm-.948-.956a.33.33 0 0 1 0-.443.343.343 0 0 1 .474 0 .322.322 0 0 1 .093.239.348.348 0 0 1-.093.24.322.322 0 0 1-.239.092.363.363 0 0 1-.235-.128Zm-.952-.952a.33.33 0 0 1 0-.443.335.335 0 0 1 .44-.01.337.337 0 0 1 .064.435.328.328 0 0 1-.269.15.411.411 0 0 1-.23-.097l-.005-.035Zm-.943-.952a.33.33 0 0 1 0-.443.335.335 0 0 1 .44-.01.328.328 0 0 1 .116.285.334.334 0 0 1-.168.258.316.316 0 0 1-.383-.055l-.005-.035Zm-.956-.93a.325.325 0 0 1-.086-.222c0-.082.03-.16.086-.221a.34.34 0 0 1 .474 0 .33.33 0 0 1 0 .443.33.33 0 0 1-.24.093.352.352 0 0 1-.23-.089l-.004-.004Zm-.952-.952a.327.327 0 0 1-.076-.23c0-.09.033-.175.093-.24a.333.333 0 1 1 .388.534.33.33 0 0 1-.153.042.41.41 0 0 1-.243-.097l-.009-.01Zm-.935-.944a.323.323 0 0 1-.093-.239.354.354 0 0 1 .093-.248.336.336 0 0 1 .298-.08.333.333 0 0 1 .09.614.332.332 0 0 1-.388-.046Zm-.952-.93a.33.33 0 0 1 0-.442.343.343 0 0 1 .474 0 .322.322 0 0 1 .093.239.348.348 0 0 1-.084.235.33.33 0 0 1-.239.102.319.319 0 0 1-.244-.133Zm-.952-.943a.33.33 0 0 1 0-.442.335.335 0 0 1 .44-.01.337.337 0 0 1 .064.435.328.328 0 0 1-.269.15.398.398 0 0 1-.235-.172v.04Zm-.943-.952a.33.33 0 0 1 0-.442.343.343 0 0 1 .474 0 .33.33 0 0 1 0 .442.321.321 0 0 1-.469-.017l-.005.017Zm-.952-.952a.317.317 0 0 1-.071-.116.314.314 0 0 1-.017-.136.343.343 0 0 1 .093-.24.34.34 0 0 1 .473 0 .326.326 0 0 1 0 .444.315.315 0 0 1-.239.093.289.289 0 0 1-.234-.093l-.005.048Zm-.952-.952a.323.323 0 0 1-.093-.239c0-.088.033-.174.093-.239a.343.343 0 0 1 .474 0 .323.323 0 0 1 .093.24.353.353 0 0 1-.093.238.326.326 0 0 1-.443 0h-.031Zm-.943-.956a.33.33 0 0 1 0-.443.343.343 0 0 1 .474 0 .323.323 0 0 1 .093.24.353.353 0 0 1-.093.238.33.33 0 0 1-.239.102.41.41 0 0 1-.235-.137Zm-.943-.952a.325.325 0 0 1 0-.443.34.34 0 0 1 .474 0 .322.322 0 0 1 .093.24.353.353 0 0 1-.093.238.332.332 0 0 1-.239.093.31.31 0 0 1-.235-.128Zm-.952-.934a.325.325 0 0 1-.086-.222c0-.082.03-.16.086-.221a.329.329 0 0 1 .297-.08.331.331 0 0 1-.062.655.324.324 0 0 1-.235-.132Zm-.957-.944a.323.323 0 0 1-.093-.239.353.353 0 0 1 .093-.243.343.343 0 0 1 .474 0 .325.325 0 0 1 0 .443.32.32 0 0 1-.239.093.351.351 0 0 1-.235-.067v.014Zm-.952-.952a.33.33 0 0 1 0-.442.343.343 0 0 1 .474 0 .322.322 0 0 1 .093.239.348.348 0 0 1-.093.239.32.32 0 0 1-.239.093.361.361 0 0 1-.23-.11l-.005-.019Zm-.938-.965a.316.316 0 0 1-.093-.24.343.343 0 0 1 .093-.238.329.329 0 0 1 .297-.08.328.328 0 0 1 .142.07.337.337 0 0 1 .064.435.328.328 0 0 1-.269.15.317.317 0 0 1-.23-.097h-.004Zm-.944-.948a.323.323 0 0 1-.093-.239c0-.088.033-.174.093-.239a.343.343 0 0 1 .474 0 .317.317 0 0 1 .093.24.348.348 0 0 1-.093.238.326.326 0 0 1-.443 0h-.031Zm-.952-.943a.33.33 0 0 1 0-.442.342.342 0 0 1 .474 0 .323.323 0 0 1 .093.239.348.348 0 0 1-.093.239.32.32 0 0 1-.239.093.363.363 0 0 1-.235-.129Zm-.943-.952a.323.323 0 0 1-.093-.239c0-.088.033-.174.093-.239a.343.343 0 0 1 .474 0 .33.33 0 0 1 0 .443.321.321 0 0 1-.239.093.309.309 0 0 1-.235-.058Zm-.952-.938a.33.33 0 0 1 0-.443.343.343 0 0 1 .474 0 .323.323 0 0 1 .093.239.352.352 0 0 1-.093.235.326.326 0 0 1-.443 0l-.031-.031Zm-.961-.952a.322.322 0 0 1-.093-.24.352.352 0 0 1 .093-.234.343.343 0 0 1 .474 0 .325.325 0 0 1 0 .443.32.32 0 0 1-.239.093.3.3 0 0 1-.235-.093v.03Zm-.947-.952a.325.325 0 0 1 0-.443.339.339 0 0 1 .474 0 .323.323 0 0 1 .093.239.353.353 0 0 1-.093.239.33.33 0 0 1-.24.102.41.41 0 0 1-.225-.137h-.009Zm-.943-.953a.319.319 0 0 1-.093-.243.343.343 0 0 1 .093-.24.34.34 0 0 1 .473 0 .326.326 0 0 1 0 .444.323.323 0 0 1-.239.093.288.288 0 0 1-.234-.08v.026Zm-.944-.951a.33.33 0 0 1 0-.443.343.343 0 0 1 .474 0 .322.322 0 0 1 .093.239.348.348 0 0 1-.093.239.326.326 0 0 1-.443 0l-.031-.035Z"/><path d="M286.464 73.463a.327.327 0 0 1-.093-.257.348.348 0 0 1 .093-.24.34.34 0 0 1 .547.11.334.334 0 0 1-.071.367.333.333 0 0 1-.367.075.338.338 0 0 1-.109-.073v.018Zm.952-.943a.33.33 0 0 1 0-.443.34.34 0 0 1 .474 0 .33.33 0 0 1 0 .443.33.33 0 0 1-.239.093.344.344 0 0 1-.24-.093h.005Zm.943-.952a.322.322 0 0 1-.093-.24.347.347 0 0 1 .089-.239.34.34 0 0 1 .473 0 .326.326 0 0 1 0 .443.317.317 0 0 1-.239.093.33.33 0 0 1-.234-.084l.004.027Zm.934-.952a.33.33 0 0 1 0-.443.343.343 0 0 1 .474 0 .323.323 0 0 1 .093.239.348.348 0 0 1-.093.24.326.326 0 0 1-.443 0l-.031-.036Zm.97-.952a.33.33 0 0 1 0-.443.343.343 0 0 1 .474 0 .33.33 0 0 1 0 .443.321.321 0 0 1-.239.093.35.35 0 0 1-.244-.089l.009-.004Zm.952-.952a.323.323 0 0 1-.093-.24c0-.088.033-.174.093-.239a.343.343 0 0 1 .474 0 .323.323 0 0 1 .093.24.352.352 0 0 1-.093.239.33.33 0 0 1-.239.101.377.377 0 0 1-.244-.093l.009-.008Zm.943-.952a.327.327 0 0 1-.102-.222.342.342 0 1 1 .093.23l.009-.008Zm.952-.944a.33.33 0 0 1 0-.442.343.343 0 0 1 .474 0 .323.323 0 0 1 .093.239.348.348 0 0 1-.093.239.321.321 0 0 1-.239.093.35.35 0 0 1-.244-.089l.009-.04Zm.952-.952a.323.323 0 0 1-.093-.239c0-.088.033-.174.093-.239a.343.343 0 0 1 .474 0 .323.323 0 0 1 .093.24.348.348 0 0 1-.093.238.33.33 0 0 1-.239.102.375.375 0 0 1-.248-.088l.013-.014Zm.944-.952a.326.326 0 0 1 0-.442.339.339 0 0 1 .473 0 .316.316 0 0 1 .093.24.348.348 0 0 1-.093.238.32.32 0 0 1-.239.102.374.374 0 0 1-.248-.093l.014-.045Zm.929-.907a.323.323 0 0 1-.093-.24c0-.088.033-.173.093-.239a.343.343 0 0 1 .474 0 .337.337 0 1 1-.474.479Zm.952-.943a.34.34 0 0 1-.057-.113.335.335 0 0 1-.009-.127.35.35 0 0 1 .075-.243.335.335 0 0 1 .44-.01.329.329 0 0 1 .093.128.325.325 0 0 1-.029.307.327.327 0 0 1-.269.15.394.394 0 0 1-.239-.132l-.005.04Zm.952-.953a.33.33 0 0 1 0-.442.343.343 0 0 1 .474 0 .325.325 0 0 1 0 .442.321.321 0 0 1-.239.093.342.342 0 0 1-.239-.11l.004.017Zm.944-.952a.326.326 0 0 1 0-.442.34.34 0 0 1 .473 0 .325.325 0 0 1 .093.239.343.343 0 0 1-.093.239.322.322 0 0 1-.221.057.31.31 0 0 1-.239-.115l-.013.022Zm.952-.952a.317.317 0 0 1-.093-.24.343.343 0 0 1 .093-.238.34.34 0 0 1 .473 0 .316.316 0 0 1 .093.24.343.343 0 0 1-.093.238.326.326 0 0 1-.442 0h-.031Zm.952-.943a.32.32 0 0 1-.084-.226.343.343 0 0 1 .093-.239.339.339 0 0 1 .473 0 .325.325 0 0 1 .08.24.332.332 0 0 1-.332.341.396.396 0 0 1-.244-.116h.014Zm.952-.952a.316.316 0 0 1-.093-.24.351.351 0 0 1 .084-.266.34.34 0 0 1 .474.001.33.33 0 0 1 0 .443.33.33 0 0 1-.24.093.311.311 0 0 1-.234-.075l.009.044Zm.938-.947a.33.33 0 0 1 0-.443.343.343 0 0 1 .474 0 .322.322 0 0 1 .093.239.348.348 0 0 1-.093.239.321.321 0 0 1-.372.057.31.31 0 0 1-.102-.092Zm.952-.944a.34.34 0 0 1-.057-.112.335.335 0 0 1-.009-.127.35.35 0 0 1 .071-.243.34.34 0 0 1 .474 0 .33.33 0 0 1 0 .443.33.33 0 0 1-.239.093.352.352 0 0 1-.24-.102v.048Zm.952-.952a.33.33 0 0 1 0-.442.336.336 0 0 1 .298-.08.333.333 0 0 1 .09.613.332.332 0 0 1-.153.042.38.38 0 0 1-.239-.115l.004-.018Zm.944-.952a.325.325 0 0 1-.086-.221c0-.082.03-.161.086-.221a.34.34 0 0 1 .473 0 .317.317 0 0 1 .093.24.343.343 0 0 1-.093.238.326.326 0 0 1-.221.057.34.34 0 0 1-.239-.12l-.013.027Zm.952-.952a.317.317 0 0 1-.093-.24.343.343 0 0 1 .093-.238.339.339 0 0 1 .473 0 .33.33 0 0 1 .096.24.335.335 0 0 1-.102.236.34.34 0 0 1-.368.068.334.334 0 0 1-.108-.075l.009.01Zm.952-.943a.325.325 0 0 1-.086-.221c0-.082.03-.161.086-.222a.34.34 0 0 1 .473 0 .326.326 0 0 1 0 .443.317.317 0 0 1-.239.093.342.342 0 0 1-.243-.102l.009.01Zm.952-.952a.325.325 0 0 1-.086-.221c0-.082.03-.161.086-.222a.34.34 0 0 1 .473 0 .317.317 0 0 1 .093.24.343.343 0 0 1-.093.239.317.317 0 0 1-.239.093.311.311 0 0 1-.248-.107l.014-.022Zm.938-.947a.323.323 0 0 1-.093-.24c0-.088.033-.174.093-.239a.342.342 0 0 1 .367-.071.338.338 0 0 1 0 .621.337.337 0 0 1-.367-.071Zm.952-.952a.33.33 0 0 1 0-.443.343.343 0 0 1 .474 0 .323.323 0 0 1 .093.239.348.348 0 0 1-.093.239.32.32 0 0 1-.239.093.297.297 0 0 1-.239-.16l.004.032Zm.93-.952a.323.323 0 0 1-.11-.24c0-.087.033-.17.093-.234a.339.339 0 0 1 .473 0 .316.316 0 0 1 .093.24.343.343 0 0 1-.093.238.32.32 0 0 1-.239.102.377.377 0 0 1-.221-.106h.004Zm.943-.953a.33.33 0 0 1-.057-.243c0-.089.033-.174.093-.24a.34.34 0 0 1 .474 0 .33.33 0 0 1 0 .444.325.325 0 0 1-.483.062h-.031l.004-.023Zm.953-.951a.326.326 0 0 1 0-.443.339.339 0 0 1 .473 0 .344.344 0 0 1 .173.241.339.339 0 0 1-.362.39.33.33 0 0 1-.253-.153l-.031-.035ZM283.878 79.206a3.13 3.13 0 1 0 0-6.261 3.13 3.13 0 0 0 0 6.261ZM316.127 79.206a3.128 3.128 0 0 0 2.892-1.933 3.13 3.13 0 1 0-2.892 1.933ZM316.14 46.94a3.127 3.127 0 0 0 2.895-1.93 3.128 3.128 0 0 0-2.275-4.271 3.131 3.131 0 1 0-.62 6.2ZM283.794 46.882a3.133 3.133 0 0 0 3.076-3.737 3.133 3.133 0 0 0-4.266-2.288 3.127 3.127 0 0 0-1.936 2.89 3.119 3.119 0 0 0 .913 2.215 3.145 3.145 0 0 0 2.213.92Z"/></g><g clip-path="url(#e)"><path d="M311.761 284.994 280 279.2l16.715 41.702L320 292.766l-8.239-7.772Zm-.506 2.554 4.861 4.579-13.29 2.387 8.429-6.966Zm-11.316 6.49-14.007-11.52 22.89 4.177-8.883 7.343Zm-1.002 2.041-2.28 18.721-12.313-30.732 14.593 12.011Zm2.111.989 14.714-2.643-16.873 20.391 2.159-17.748Z" fill="#fff"/></g><g clip-path="url(#f)"><path d="M310.185 213.064a2.546 2.546 0 0 0-2.51 0l-5.756 3.395-3.912 2.214-5.756 3.395c-.738.443-1.697.443-2.509 0l-4.576-2.657a2.57 2.57 0 0 1-1.255-2.14v-5.24c0-.886.443-1.697 1.255-2.14l4.502-2.583c.738-.443 1.697-.443 2.509 0l4.502 2.583c.738.443 1.255 1.254 1.255 2.14v3.395l3.911-2.288v-3.395c0-.885-.443-1.697-1.255-2.14l-8.339-4.871a2.543 2.543 0 0 0-2.509 0l-8.487 4.871c-.812.443-1.255 1.255-1.255 2.14v9.816c0 .885.443 1.697 1.255 2.14l8.487 4.871c.738.443 1.697.443 2.509 0l5.756-3.321 3.912-2.288 5.756-3.321c.738-.443 1.698-.443 2.51 0l4.501 2.583c.738.443 1.255 1.254 1.255 2.14v5.24c0 .886-.443 1.697-1.255 2.14l-4.501 2.657c-.739.443-1.698.443-2.51 0l-4.502-2.583a2.567 2.567 0 0 1-1.254-2.14v-3.395l-3.912 2.288v3.395c0 .885.443 1.697 1.255 2.14l8.487 4.871c.738.442 1.697.442 2.509 0l8.487-4.871c.738-.443 1.255-1.255 1.255-2.14v-9.816c0-.886-.443-1.697-1.255-2.14l-8.56-4.945Z" fill="#fff"/></g><g clip-path="url(#g)"><path d="M219.991 200c-8.359 0-15.191 6.792-15.191 15.191a15.9 15.9 0 0 0 .804 4.943c.361 1.085 1.567 1.688 2.692 1.326 1.085-.362 1.688-1.567 1.326-2.693a10.703 10.703 0 0 1-.603-3.898c.161-5.666 4.743-10.328 10.409-10.609 6.309-.322 11.534 4.702 11.534 10.931 0 5.827-4.582 10.609-10.328 10.931 0 0-2.13.12-3.175.281-.523.08-.925.161-1.206.201-.12.04-.241-.08-.201-.201l.362-1.768 1.969-9.083a2.105 2.105 0 0 0-1.607-2.491 2.106 2.106 0 0 0-2.492 1.607s-4.742 22.103-4.782 22.344a2.106 2.106 0 0 0 1.607 2.492 2.106 2.106 0 0 0 2.492-1.607c.04-.242.683-3.175.683-3.175.482-2.251 2.331-3.898 4.501-4.18.482-.08 2.371-.201 2.371-.201 7.837-.602 14.025-7.153 14.025-15.15 0-8.399-6.832-15.191-15.19-15.191Zm1.085 34.963c-1.367-.281-2.733.563-3.014 1.969-.282 1.366.562 2.733 1.969 3.014 1.366.281 2.732-.563 3.014-1.969.281-1.407-.563-2.733-1.969-3.014Z" fill="#fff"/></g><g clip-path="url(#h)"><path d="M136.816 57.29a2.683 2.683 0 0 1-2.408-1.483 2.7 2.7 0 0 1 1.194-3.62 2.709 2.709 0 0 1 1.21-.288 2.682 2.682 0 0 1 2.408 1.481 2.697 2.697 0 0 1-2.404 3.91Zm-3.161 5.508c-.053 0-.104-.002-.156-.004a2.7 2.7 0 0 1-2.535-2.845 2.693 2.693 0 1 1 5.378.306 2.697 2.697 0 0 1-2.687 2.543Zm3.181 5.492a2.683 2.683 0 0 1-1.475-.44 2.679 2.679 0 0 1-1.16-1.705 2.696 2.696 0 0 1 2.639-3.244c.524 0 1.036.153 1.475.442a2.68 2.68 0 0 1 1.161 1.704 2.67 2.67 0 0 1-.385 2.026 2.686 2.686 0 0 1-2.255 1.217Zm6.352-.013a2.68 2.68 0 0 1-2.405-1.482 2.673 2.673 0 0 1-.153-2.057 2.675 2.675 0 0 1 1.346-1.562 2.684 2.684 0 0 1 3.617 1.194 2.699 2.699 0 0 1-1.193 3.619 2.708 2.708 0 0 1-1.212.288Zm3.165-5.506c-.053 0-.104-.004-.155-.006a2.695 2.695 0 1 1 2.696-3.58c.117.335.166.689.144 1.042a2.693 2.693 0 0 1-2.685 2.544Zm-3.192-5.494a2.698 2.698 0 0 1-1.276-5.067 2.688 2.688 0 0 1 2.755.117 2.698 2.698 0 0 1 .776 3.731 2.693 2.693 0 0 1-2.255 1.219Zm-9.042-10.005a1.345 1.345 0 1 1-2.401 1.213 1.345 1.345 0 0 1 2.401-1.212Zm-8.153 11.503a1.346 1.346 0 1 1-.152 2.688 1.346 1.346 0 0 1 .152-2.688Zm5.881 12.815a1.35 1.35 0 0 1 1.376-.584 1.345 1.345 0 1 1-1.376.585m14.035 1.312a1.346 1.346 0 1 1 2.405-1.211 1.346 1.346 0 0 1-2.405 1.211Zm8.152-11.502a1.346 1.346 0 0 1-.82-2.35 1.332 1.332 0 0 1 .973-.339 1.347 1.347 0 1 1-.153 2.689m-5.879-12.816a1.342 1.342 0 0 1-1.868.395 1.346 1.346 0 0 1-.382-1.87 1.346 1.346 0 0 1 1.375-.585 1.348 1.348 0 0 1 .875 2.06Zm-16.979-5.442a.873.873 0 0 1-.713 1.26.866.866 0 0 1-.842-.477.872.872 0 0 1 1.555-.783ZM120.919 59.26a.867.867 0 0 1 .773.582.869.869 0 0 1-1.471.867.88.88 0 0 1-.22-.63.876.876 0 0 1 .918-.82Zm8.825 16.945a.882.882 0 0 1 .552-.376.87.87 0 0 1 .904 1.333.873.873 0 0 1-1.205.25.871.871 0 0 1-.251-1.207Zm19.081.83a.872.872 0 0 1 1.555-.786.888.888 0 0 1 .05.664.884.884 0 0 1-.435.505.87.87 0 0 1-1.17-.384Zm10.256-16.119a.872.872 0 1 1 .1-1.74c.479.026.847.44.817.92a.871.871 0 0 1-.917.82Zm-8.822-16.947a.872.872 0 1 1-1.458-.956.872.872 0 0 1 1.458.956Zm-18.819 9.377a1.582 1.582 0 0 1 .023 2.633 1.587 1.587 0 0 1-1.76.014 1.583 1.583 0 1 1 1.737-2.647Zm-1.557 10.787a1.584 1.584 0 1 1 1.426 2.828 1.584 1.584 0 0 1-1.426-2.828m8.446 6.743a1.583 1.583 0 1 1 3.163.177 1.583 1.583 0 0 1-3.163-.177m10.234-4.045a1.588 1.588 0 0 1-.458-2.194 1.584 1.584 0 0 1 2.648 1.737 1.581 1.581 0 0 1-2.19.457m1.556-10.79a1.582 1.582 0 0 1-2.126-.7 1.584 1.584 0 0 1 2.829-1.425c.392.78.077 1.733-.703 2.126M141.56 49.3a1.587 1.587 0 0 1-3.079.432 1.583 1.583 0 1 1 3.079-.432Zm-16.016 1.205a1.109 1.109 0 1 1-1.217 1.854 1.109 1.109 0 0 1 1.217-1.854Zm-1.068 17.316a1.11 1.11 0 0 1 1.489.492 1.111 1.111 0 0 1-.492 1.489 1.109 1.109 0 0 1-.997-1.98Zm14.343 9.584a1.109 1.109 0 1 1 2.214.125 1.109 1.109 0 0 1-2.214-.125Zm15.637-7.733a1.109 1.109 0 1 1 1.217-1.853 1.109 1.109 0 0 1-1.217 1.853m1.07-17.316a1.112 1.112 0 0 1-1.553-1.338 1.118 1.118 0 0 1 .971-.758 1.106 1.106 0 0 1 1.072.606 1.112 1.112 0 0 1-.49 1.49Zm-14.456-9.584a1.112 1.112 0 0 1-1.17 1.044 1.11 1.11 0 1 1 1.17-1.044Z" fill="#fff"/></g><path d="M47.897 380.297 60.075 360v27.723l-12.178-7.426Zm12.079 9.802L47.6 382.871 59.976 400l12.376-17.129-12.376 7.228Zm.1-30.099 12.178 20.297-12.179 7.426V360ZM288.26 553.054A13.662 13.662 0 0 0 300.149 560c4.919 0 9.473-2.66 11.889-6.946a13.907 13.907 0 0 0 0-13.891l-10.457-18.326a1.645 1.645 0 0 0-2.865 0l-10.456 18.326a13.903 13.903 0 0 0 0 13.891Zm8.943-23.499 2.23-3.907a.821.821 0 0 1 1.432 0l8.577 15.032a10.85 10.85 0 0 1 .887 8.883 9.42 9.42 0 0 0-.439-1.459c-1.184-3.025-3.863-5.36-7.963-6.939-2.819-1.082-4.618-2.673-5.349-4.73-.942-2.65.042-5.541.625-6.88Zm-3.801 6.663-2.546 4.462a10.866 10.866 0 0 0 0 10.858 10.674 10.674 0 0 0 16.156 2.935 7.503 7.503 0 0 0 .067-5.291c-.87-2.186-2.965-3.931-6.225-5.188-3.686-1.414-6.08-3.623-7.116-6.562a9.288 9.288 0 0 1-.336-1.214Z" fill="#fff"/><g clip-path="url(#i)"><path d="M72.57 541.383c-2.192-2.591-5.687-4.227-10.262-5.888-3.71-1.344-6.277-2.48-7.642-3.984a4.17 4.17 0 0 1-.935-4.12c.612-2.085 2.547-3.891 4.912-4.555 2.606-.673 5.211-.156 7.483.813a25.724 25.724 0 0 1 6.816 4.586l.062.059.052.049c.483.455.758.743.758.757l.694-.612.872-.781a26.45 26.45 0 0 0-4.31-3.693c-4.037-2.803-10.506-5.711-17.69-2.814-3.884 1.56-6.454 4.242-7.278 7.556-.798 3.224.167 6.757 2.651 9.692 2.189 2.592 5.687 4.228 10.258 5.888 3.71 1.345 6.278 2.481 7.643 3.985a4.165 4.165 0 0 1 .934 4.12c-.611 2.084-2.546 3.891-4.932 4.558-8.866 2.476-16.192-5.993-16.265-6.08l-1.591 1.345c.219.257 3.693 4.286 8.92 6.253A19.81 19.81 0 0 0 61.1 560a18.201 18.201 0 0 0 6.857-1.351c3.87-1.56 6.454-4.242 7.274-7.556.788-3.234-.177-6.767-2.661-9.71Zm.629 9.192c-.643 2.595-2.72 4.735-5.85 6.045a8.313 8.313 0 0 0 2.233-3.606 6.232 6.232 0 0 0-1.39-6.093c-1.639-1.82-4.453-3.106-8.465-4.544-3.686-1.337-7.375-2.901-9.38-5.273-2.004-2.373-2.855-5.281-2.22-7.848.636-2.567 2.72-4.735 5.85-6.048a8.312 8.312 0 0 0-2.233 3.606 6.23 6.23 0 0 0 1.39 6.093c1.64 1.827 4.457 3.095 8.469 4.551 3.686 1.337 7.375 2.901 9.38 5.273 2.004 2.373 2.852 5.281 2.216 7.848v-.004Z" fill="#fff"/></g><g clip-path="url(#j)"><path d="M65.267 158.365a.48.48 0 0 0-.304-.18 22.538 22.538 0 0 1-6.473-2.462c-4.143-2.411-6.785-6.06-6.887-10.215a10.6 10.6 0 0 1 .956-4.596c.422-.937 2.684-4.292 3.059-4.905 1.541-2.415 1.046-2.263-1.123-5.279l-3.122-4.623-2.111-3.079a29.055 29.055 0 0 0-3.426 2.732 19.993 19.993 0 0 0-5.64 16.907 19.993 19.993 0 0 0 10.084 14.697c-6.952-5.096-10.125-12.736-7.463-20.441a19.879 19.879 0 0 1 3.144-5.724l2.287 3.363a1.1 1.1 0 0 1-.054 1.303 14.96 14.96 0 0 0-2.518 4.487c-2.922 8.482 4.975 17.269 13.318 18.702 1.599.272 4.514.576 6.02.19a.55.55 0 0 0 .374-.367.532.532 0 0 0-.121-.51Zm-10.53-36.904c.076.096.185.16.305.179a22.525 22.525 0 0 1 6.472 2.463c4.143 2.411 6.784 6.059 6.886 10.215a10.606 10.606 0 0 1-.957 4.596c-.421.936-2.683 4.292-3.058 4.904-1.54 2.416-1.045 2.264 1.124 5.279l3.12 4.624 2.111 3.079a29.254 29.254 0 0 0 3.425-2.732 20.012 20.012 0 0 0 2.326-25.441 20.002 20.002 0 0 0-6.77-6.163c6.953 5.096 10.124 12.736 7.464 20.441a19.91 19.91 0 0 1-3.144 5.724l-2.286-3.363a1.099 1.099 0 0 1 .054-1.303 14.987 14.987 0 0 0 2.516-4.487c2.922-8.483-4.974-17.27-13.315-18.702-1.599-.273-4.513-.577-6.018-.191a.538.538 0 0 0-.254.878Z" fill="#fff"/></g><path d="M158.183 207.083c-.417-1.583-1.75-3.166-4.083-4.916-1.917-1.334-3.917-2.167-5.5-2.167-.334 0-.584 0-.917.083-.75.167-1.333.667-1.75 1.5-.5.917-.583 2.25-.25 3 .083.25.25.5.417.834-1.5.916-2.417 1.25-2.5 1.25 4 1.333 7.333 4.166 9.416 7.916v-.333c.084-1 .417-2.083.75-3.25.417.083.834.167 1.25.167 1.084 0 2-.417 2.584-1.25.583-.917.833-1.917.583-2.834Zm-4.25 2.917c-.25-.083-.5-.167-.667-.167-.25.584-.583 1.334-.75 2.167-1.75-2.417-4.083-4.25-6.75-5.5.417-.25 1-.583 1.5-.917-.416-.5-.75-1-.916-1.333-.334-.833.083-3 1.416-3.25 1.417-.333 3.584.333 5.75 1.917 2.167 1.583 3.334 3 3.75 4.416.417 1.334-.666 3.417-3.333 2.667Z" fill="#fff"/><path d="M149.683 203.917c.583.25 1.333.666 2.25 1.25 1.083.75 2.083 1.583 2.667 2.25-1 1.333-1.667 3.25-2.084 4.5.167.333.417.583.667.916.167-.75.583-1.833 1-2.916h.417c.333 0 .75-.084 1.083-.334.25-.166.5-.5.5-1.083s-.417-1.25-1.333-2.167a30.739 30.739 0 0 0-2.417-1.916c-2.5-1.667-4.25-2.167-5-1.334-.5.5-.5 1.167-.25 1.667-.917.583-1.75 1.083-2.25 1.333.333.084.667.25 1 .417.833-.5 2.167-1.417 3.75-2.583Zm5.5 4.166a.912.912 0 0 1 .083.417c0 .25-.083.333-.166.417-.084.083-.334.166-.584.166.25-.416.417-.666.667-1Zm-7.167-4.416c.084-.084.334-.167.667-.084-.25.25-.583.417-.833.667a.438.438 0 0 1 .166-.583Z" fill="#fff"/><path d="M138.85 205c-9.584 0-17.25 7.833-17.25 17.5s7.666 17.5 17.25 17.5c9.5 0 17.25-7.833 17.25-17.5s-7.834-17.5-17.25-17.5Zm0 34c-9 0-16.25-7.333-16.25-16.5s7.25-16.583 16.25-16.583c8.916 0 16.25 7.416 16.25 16.583 0 9.167-7.334 16.5-16.25 16.5Z" fill="#fff"/><path d="M123.35 222.667c0 .416.166.916.5 1.333 0 0 0 .083.083.083.083.084.167.25.25.334l.167.166c.083.084.166.25.333.334.083.083.167.166.25.166.083.084.25.167.333.334.084.083.167.166.334.25 0 .166.166.25.25.333l.5.25c.166.083.333.167.583.333.167.084.417.167.583.334.084.083.25.083.417.166.167.084.417.167.583.25.167.084.25.084.417.167.167 0 .417.083.667.167a.906.906 0 0 0 .416.083c.25.083.5.083.75.167.167 0 .334.083.417.083.333.083.667.083 1 .167a.63.63 0 0 1 .333.083c.417.083.917.083 1.334.083h3.083c.583-.083 1.167-.083 1.833-.166 4.667-.667 7.084-2.084 9.834-3 3-1 5.583-1 5.583-2.584v-.166c-.167-1.75-3.167-2.667-7.167-3.084-3-.25-6 .084-9.416 1.084-3 .916-5.667.75-7.584.5-4.25-.5-6.666-.584-6.666 1.583v.167ZM143.85 215c1.416 0 2.583-1.167 2.583-2.667 0-1.5-1.167-2.666-2.583-2.666-1.417 0-2.584 1.166-2.584 2.666S142.433 215 143.85 215ZM148.183 217c.583 0 1.083-.5 1.083-1.083 0-.584-.5-1.084-1.083-1.084s-1.083.5-1.083 1.084c0 .583.416 1.083 1.083 1.083Z" fill="#fff"/><path d="M151.266 225.167c-.75.166-1.583.416-2.416.666-.75.25-1.417.5-2.167.834-2 .833-4.333 1.75-7.917 2.25-1.25.166-2.583.25-3.833.25-5.5 0-9.583-1.834-11.5-4.084 1.333 7.334 7.667 12.917 15.25 12.917 7.917 0 14.417-6.083 15.333-13.917-.583.584-1.583.834-2.75 1.084Zm-17 9.333c-.75 0-1.333-.583-1.333-1.333s.583-1.334 1.333-1.334 1.334.584 1.334 1.334c0 .75-.584 1.333-1.334 1.333Zm3.5.333a.835.835 0 0 1-.833-.833c0-.5.333-.833.833-.833.417 0 .834.333.834.833 0 .5-.417.833-.834.833Zm2.167 1.5a.57.57 0 0 1-.583-.583.57.57 0 0 1 .583-.583.57.57 0 0 1 .583.583.57.57 0 0 1-.583.583Zm2.083-1.916a.836.836 0 0 1-.833-.834c0-.416.333-.833.833-.833.417 0 .834.333.834.833-.084.417-.417.834-.834.834Zm1.667 1.5a.57.57 0 0 1-.583-.584.57.57 0 0 1 .583-.583.57.57 0 0 1 .583.583.57.57 0 0 1-.583.584Zm2.583-4.75c-.75 0-1.333-.584-1.333-1.334 0-.75.583-1.333 1.333-1.333s1.334.583 1.334 1.333-.667 1.334-1.334 1.334Z" fill="#fff"/><g clip-path="url(#k)" fill="#fff"><path d="M47.91 440H40.8v7.111h7.11V440ZM63.466 448h-7.11v7.111h7.11V448ZM63.466 464.444h-7.11v7.112h7.11v-7.112ZM79.466 456.444h-7.11v7.112h7.11v-7.112ZM47.91 456.444H40.8v7.112h7.11v-7.112ZM47.91 472.889H40.8V480h7.11v-7.111Z"/></g><g clip-path="url(#l)"><path d="M302.084 400a.624.624 0 0 1-.584-.832l1.397-3.998 1.882-5.406 2.004-5.727h-9.406l-5.206 14.323a2.489 2.489 0 0 1-2.336 1.64h-7.615a.623.623 0 0 1-.583-.832l6.844-19.628h.013l-6.833-18.708a.625.625 0 0 1 .566-.832h7.633a2.488 2.488 0 0 1 2.323 1.615l5.18 13.92v-.193h9.46l-5.298-14.497a.624.624 0 0 1 .579-.845h7.607a2.49 2.49 0 0 1 2.293 1.57l.018.045 6.708 17.925.004.013a.62.62 0 0 1 0 .397l-.004.013-.027.081-.01.031-6.671 18.285a2.49 2.49 0 0 1-2.323 1.64h-7.615Zm4.703-15.963h-.001l-3.889 11.133-1.397 4.01 5.287-15.143Zm-4.907-23.993a.625.625 0 0 0-.355.788l5.299 14.51-5.299-14.51a.605.605 0 0 1-.035-.26.626.626 0 0 1 .39-.528Z" fill="#fff"/></g><g clip-path="url(#m)" fill="#fff"><path d="M151.34 293.332A13.398 13.398 0 0 0 137.872 280a13.407 13.407 0 0 0-9.497 3.876 13.398 13.398 0 0 0-3.975 9.456 13.408 13.408 0 0 0 8.337 12.342 13.394 13.394 0 0 0 5.135.994 13.387 13.387 0 0 0 9.496-3.879 13.39 13.39 0 0 0 3.972-9.457Zm-22.449 0a8.988 8.988 0 0 1 5.481-8.362 8.977 8.977 0 0 1 12.302 6.486 8.989 8.989 0 0 1-3.802 9.247 8.99 8.99 0 0 1-5 1.52 8.95 8.95 0 0 1-6.332-2.585 8.931 8.931 0 0 1-2.649-6.306ZM147.493 307.315l-8.965 8.891a2.207 2.207 0 0 0 0 3.142 2.258 2.258 0 0 0 3.175 0l8.982-8.886a2.207 2.207 0 0 0 0-3.142 2.257 2.257 0 0 0-3.192-.005ZM153.588 284.446a2.233 2.233 0 0 0 2.243-2.223 2.233 2.233 0 0 0-2.243-2.223 2.233 2.233 0 0 0-2.243 2.223 2.233 2.233 0 0 0 2.243 2.223Z"/></g><path d="M64.278 320c-2.876 0-4.972-.672-6.288-2.06-1.316-1.388-1.953-2.84-1.953-4.442 0-.565.107-1.066.358-1.459.214-.394.53-.709.922-.923a3.03 3.03 0 0 1 1.46-.358c.572 0 1.066.108 1.459.358.393.214.708.529.923.923.214.393.357.887.357 1.459 0 .708-.178 1.28-.5 1.702-.322.429-.744.744-1.21.887.394.53 1.03.923 1.882 1.173a8.976 8.976 0 0 0 2.56.358c1.21 0 2.275-.322 3.234-.958.959-.637 1.667-1.596 2.132-2.84.465-1.245.672-2.661.672-4.263 0-1.739-.25-3.198-.744-4.407-.5-1.244-1.209-2.167-2.167-2.732a5.73 5.73 0 0 0-3.126-.887c-.744 0-1.631.322-2.733.923l-2.002.958v-.994l9.055-12.075H56.037v12.54c0 1.03.215 1.881.672 2.56.465.673 1.174.995 2.096.995.744 0 1.424-.251 2.096-.744a8.355 8.355 0 0 0 1.738-1.774c.072-.143.143-.25.215-.286.107-.072.179-.108.286-.108.179 0 .358.072.601.251.215.25.322.529.322.851 0 .143-.072.358-.108.637-.5 1.173-1.208 2.06-2.131 2.661-.923.6-1.917.922-3.019.922-2.732 0-4.585-.529-5.65-1.595-1.03-1.066-1.56-2.525-1.56-4.335v-12.575H45.2v-2.346h6.43v-5.329l-1.458-1.459V280h4.263l1.595.815v7.146l16.588-.035 1.63 1.631-10.15 10.2a6.799 6.799 0 0 1 1.918-.465c1.101 0 2.346.357 3.69 1.066 1.388.672 2.454 1.631 3.198 2.839.744 1.209 1.245 2.347 1.46 3.448.214 1.102.357 2.06.357 2.947 0 1.953-.43 3.763-1.245 5.437-.815 1.666-2.06 2.947-3.762 3.762-1.674.816-3.484 1.209-5.436 1.209ZM148.26 543.789c.119.864.354 1.51.705 1.938.642.778 1.741 1.167 3.298 1.167.932 0 1.689-.102 2.271-.308 1.103-.393 1.655-1.125 1.655-2.194 0-.624-.274-1.108-.821-1.45-.547-.333-1.407-.629-2.579-.885l-2.002-.449c-1.967-.445-3.327-.928-4.08-1.45-1.275-.873-1.912-2.237-1.912-4.093 0-1.694.616-3.101 1.848-4.222 1.232-1.12 3.041-1.681 5.427-1.681 1.993 0 3.691.531 5.094 1.591 1.412 1.053 2.152 2.584 2.22 4.594h-3.798c-.068-1.138-.564-1.946-1.488-2.425-.616-.317-1.382-.475-2.297-.475-1.018 0-1.831.205-2.438.616-.607.411-.911.984-.911 1.719 0 .676.299 1.181.898 1.515.385.222 1.206.483 2.464.782l3.259.783c1.428.342 2.506.8 3.233 1.373 1.129.889 1.694 2.177 1.694 3.862 0 1.728-.663 3.165-1.989 4.311-1.317 1.138-3.182 1.707-5.594 1.707-2.464 0-4.401-.56-5.813-1.681-1.411-1.129-2.117-2.677-2.117-4.645h3.773ZM152.39 522H120v5.182h32.39V522Z" fill="#fff"/><path d="M125.183 558.277V522H120v36.277h5.183Z" fill="#fff"/><path d="M152.39 553.095H120v5.182h32.39v-5.182Z" fill="#fff"/><g clip-path="url(#n)" fill="#fff"><path d="M55.942 200.216c-1.56.383-3.085.89-4.564 1.516a23.754 23.754 0 0 0-5.46 3.884c-.751.736-2.583 2.932-2.583 3.076 0 .044-.36.68-.8 1.415-.326.526-.62 1.071-.88 1.632-.044.172-.304.896-.564 1.6-.8 2.184-1.076 3.888-1.076 6.628a15.331 15.331 0 0 0 .304 3.795 22.946 22.946 0 0 0 2.096 5.764c.36.636.752 1.316.868 1.532a26.287 26.287 0 0 0 2.872 3.292c.407.362.836.7 1.284 1.011.278.175.545.368.8.576.303.4 3.247 1.704 4.707 2.08 2.419.582 4.942.562 7.352-.056 1.907-.536 4.475-1.776 5.227-2.54a.703.703 0 0 1 .316-.204c.481-.361.93-.762 1.344-1.199a19.725 19.725 0 0 0 5.736-11.695c.62-4.52-.708-8.952-3.496-11.668a10.529 10.529 0 0 0-4-2.323 7.794 7.794 0 0 0-2.988-.172c-.316.088-.476.492-.204.492s2.168 2.063 2.7 2.887a10.955 10.955 0 0 1 1.632 3.336c1.168 3.6 1.2 6.528.028 10.091a12.215 12.215 0 0 1-6.94 7.668c-.723.304-.995.332-3.103.348-2.208 0-2.352 0-3.308-.4a10.463 10.463 0 0 1-1.6-.836 3 3 0 0 0-.736-.4c-.216 0-2.28-2.224-2.871-3.104a18.26 18.26 0 0 1-2.08-4.896c-.4-1.659-.4-5.415 0-7.319 1.344-6.399 4.995-11.567 9.999-14.123 1.72-.88 3.164-1.4 4.204-1.532a1.59 1.59 0 0 0 .795-.256c0-.204-4.015-.12-5.011.1Z"/><path d="M60.59 201.672c-1.544.324-4.836 1.72-5.5 2.324a15.06 15.06 0 0 1-.996.78c-.564.446-1.098.928-1.6 1.444a19.815 19.815 0 0 0-5.431 13.691 9.818 9.818 0 0 0 .36 3.247c.592 2.096.94 2.96 1.791 4.216 1.864 2.8 4.836 4.492 7.652 4.348.386 0 .771-.042 1.148-.128.056-.056-.36-.536-.924-1.056a12.68 12.68 0 0 1-3.552-5.56 13.276 13.276 0 0 1-.852-5.127c0-5.5 2.916-10.455 7.264-12.399 1.963-.88 5.283-.896 7.291-.044 1.316.564 3.524 2.268 4.172 3.199a15.519 15.519 0 0 1 2.4 4.648c.755 2.128.943 5.232.48 7.939-.94 5.6-3.884 10.572-8 13.515-1.76 1.24-5.356 2.844-6.4 2.844-.491 0-.835.144-.735.304.144.232 3.103.144 4.463-.144 4.508-.92 7.888-2.748 10.847-5.823a21.53 21.53 0 0 0 2.684-3.364c.116-.244.476-.924.8-1.516a24.482 24.482 0 0 0 1.832-5.3c.288-1.399.288-6.223 0-7.599A20.889 20.889 0 0 0 76 207.712a17.624 17.624 0 0 0-3.291-3.176c-.316-.244-.608-.464-.648-.504-.524-.596-3.92-2.036-5.648-2.372a19.206 19.206 0 0 0-5.823.012Z"/></g><path fill-rule="evenodd" clip-rule="evenodd" d="M124.141 446.321c.005-1.036.009-1.649.015-1.681.112-.661.552-2.926 3.205-3.036 1.066-.045 1.797.272 2.321.686.739.585 1.054 1.418 1.215 1.895v.001c.024.074.124.758.274 1.849a7.279 7.279 0 0 1 2.862 1.862c.675.72 1.448 2.025 1.695 2.984l.001.003c.032.125.222.764.438 1.733.113.509 1.634 12.87 2.371 18.917.376.065.783.106 1.223.114a7.912 7.912 0 0 0 1.679-.135c.78-6.117 2.404-18.896 2.413-18.993.249-3.079 2.084-5.346 4.579-6.369a6.1 6.1 0 0 1 .396-.152c.13-1.026.211-1.648.216-1.667.534-2.383 2.777-3.12 4.542-2.536 1.216.401 2.194 1.412 2.292 2.887l.003 1.699c2.134 1.05 3.775 3.024 4.054 5.927.011.12.063 24.164.063 24.164l.002 1.171-6.409.026-.003-1.177-.046-28.482a7.029 7.029 0 0 0-2.605-.122c-.811 6.284-2.601 20.147-2.736 20.515v.001c-.091.246-1.082 3.527-4.632 4.946l-.225 1.756c-.312 1.851-1.438 2.794-2.612 3.073-1.82.434-3.962-.75-4.141-3.204 0-.023-.071-.61-.189-1.575-3.861-1.456-4.602-5.068-4.641-5.191v-.002c-.058-.179-1.824-14.03-2.664-20.281a8.106 8.106 0 0 0-1.393-.071 7.18 7.18 0 0 0-1.251.15c-.022 7.852-.024 28.518-.024 28.518v1.174l-6.429-.007.003-1.176s.035-13.483.029-20.84c-.003-1.632.017-2.919.069-3.791.064-1.122.743-2.68 1.464-3.551a7.496 7.496 0 0 1 2.576-2.012Zm16.989 27.619c-.764.076-1.534.078-2.298.006l.102.857v.001c.057.78.676 1.23 1.254 1.092.423-.101.731-.516.843-1.187l.001-.004.098-.765Zm-17-24.855c-.024 7.443-.042 22.034-.047 26.263l-1.729-.003c.008-3.44.031-13.625.026-19.672-.002-1.574.015-2.813.064-3.652.04-.695.483-1.65.93-2.191.231-.279.485-.528.756-.745Zm31.758.078c.92.776 1.569 1.894 1.712 3.372v.001c.01.096.04 17.974.049 22.77l-1.712.006-.049-26.149Zm-24.341-.323c.276.189.535.409.771.662.448.477.972 1.333 1.137 1.966.03.115.213.728.421 1.66.104.467 1.415 11.138 2.177 17.39-1.663-1.207-2.033-2.956-2.057-3.029-.051-.162-1.552-11.894-2.449-18.649Zm16.929-.074c-.846 6.656-2.354 18.492-2.477 18.828-.053.143-.535 1.689-2.055 2.83.833-6.537 2.242-17.62 2.25-17.709v-.003c.14-1.75 1.015-3.125 2.282-3.946Zm5.063-3.141-.002-.762v-.009c-.029-.433-.332-.712-.684-.829-.586-.192-1.341.032-1.519.82-.003.015-.034.248-.087.659a9.462 9.462 0 0 1 2.292.12v.001Zm-24.77-.092a7.674 7.674 0 0 0-.098-.601c-.1-.293-.284-1.021-1.212-.982-.88.036-.95.861-.988 1.08-.003.028-.005.232-.008.587a10.286 10.286 0 0 1 2.306-.083v-.001Z" fill="#fff"/><path d="M237.636 128.904a4.932 4.932 0 0 0-2.625-1.284c-1.228-.16-2.472.66-3.317 1.2-.844.54-2.44 2.145-3.108 2.601-.668.456-2.349.92-5.049 2.58-2.701 1.661-13.387 8.458-13.387 8.458l2.753.032-12.359 6.401h1.236l-1.78 1.384c.984.23 2.019.079 2.897-.424v.4s14.731-5.805 17.603-4.3l-1.748.492c.152 0 2.956.18 2.956.18a3.943 3.943 0 0 0 1.785 2.848c1.688 1.117 1.712 1.733 1.712 1.733s-.872.364-.872.8a8 8 0 0 1 4.765 0s-.092-.48-1.268-.8c-1.177-.32-2.321-1.601-2.897-2.297a3.24 3.24 0 0 1-.46-3.164c.4-1.053 1.836-1.629 4.733-3.133 3.437-1.776 4.221-3.109 4.705-4.129.484-1.02 1.2-3.076 1.6-4.037a5.288 5.288 0 0 1 1.652-2.296c.513-.4 2.837-1.268 2.837-1.268s-1.772-1.517-2.348-1.965M127.233 120H121.6v40h5.633v-40Z" fill="#fff"/><path opacity=".5" d="M127.233 130v-10l11.971 15.494-3.802 4.646-8.169-10.14ZM135.403 140.14l-8.193 10.279V160l11.855-14.79-3.662-5.07Z" fill="#fff"/><path d="m151.176 120.279-15.774 19.861L149.769 160h8.457l-15.638-19.86 15.638-19.861h-7.05ZM223.787 442.8c6.918 0 12.535 5.612 12.535 12.525a.784.784 0 0 1-.169.527c-.157.192-.349.191-.515.195-.092.003-23.875-.004-23.887-.004a.563.563 0 0 1-.297-.153c-.153-.149-.201-.385-.201-.565 0-6.913 5.616-12.525 12.534-12.525ZM206.646 459.818a.786.786 0 1 0-.001-1.571.786.786 0 0 0 .001 1.571ZM209.375 458.229l28.888.001a.785.785 0 0 1 .002 1.567l-28.89.001a.785.785 0 1 1 0-1.569ZM203.492 461.736l21.142.001a.784.784 0 0 1 .003 1.567l-21.145.001a.786.786 0 0 1 0-1.569ZM209.375 465.186h25.499a.786.786 0 0 1 .002 1.568l-25.501.001a.786.786 0 0 1 0-1.569ZM205.031 468.674l10.088.001a.785.785 0 0 1 .002 1.567l-10.09.001a.784.784 0 1 1 0-1.569ZM218.121 468.669l21.126.001a.786.786 0 0 1 .002 1.568h-21.128a.785.785 0 1 1 0-1.569ZM200.785 463.309a.784.784 0 1 0 .002-1.568.784.784 0 0 0-.002 1.568ZM206.646 466.765a.785.785 0 1 0 0-1.57.785.785 0 0 0 0 1.57ZM202.254 470.249a.784.784 0 1 0 .002-1.568.784.784 0 0 0-.002 1.568ZM219.589 473.703a.784.784 0 1 0 .001-1.569.784.784 0 0 0-.001 1.569ZM211.637 477.194a.785.785 0 1 0 0-1.57.785.785 0 0 0 0 1.57ZM222.304 472.165h13.057a.786.786 0 0 1 .002 1.568l-13.059.001a.785.785 0 0 1 0-1.569ZM214.377 475.625l13.041.001a.785.785 0 0 1 .002 1.567l-13.043.001a.784.784 0 1 1 0-1.569Z" fill="#fff"/><g clip-path="url(#o)" fill="#fff"><path d="M149.616 375.073h-19.657c-5.398-.022-9.818 4.242-9.959 9.606 0 .14.109.259.261.259h19.657c5.397.022 9.817-4.253 9.959-9.617a.263.263 0 0 0-.261-.259v.011ZM129.989 360c-5.42-.022-9.858 4.253-9.989 9.617 0 .141.109.259.251.259H150c5.42.022 9.858-4.252 10-9.617 0-.14-.12-.259-.262-.259h-29.749ZM125.062 399.753c2.795 0 5.061-2.211 5.061-4.938 0-2.728-2.266-4.938-5.061-4.938-2.796 0-5.062 2.21-5.062 4.938 0 2.727 2.266 4.938 5.062 4.938Z"/></g><g clip-path="url(#p)"><path d="M70.929 53.412h-3.536c-.393 0-.786-.178-1.072-.464l-1.428-1.607c-.429-.464-1.107-.5-1.607-.107l-.107.107-1.215 1.393c-.393.464-1 .714-1.607.714H41.036A20.877 20.877 0 0 0 40 58.377h18.286c.321 0 .643-.143.857-.358l1.714-1.785c.214-.215.5-.357.822-.357h.071c.321 0 .643.142.857.392l1.429 1.608c.285.321.678.5 1.071.5H80a20.877 20.877 0 0 0-1.036-4.929H70.93v-.036ZM59.214 63.27l-1.428-1.608c-.429-.464-1.107-.5-1.607-.107l-.108.107-1.25 1.393a2.038 2.038 0 0 1-1.571.715H40.286c.321 1.714.893 3.392 1.643 5h9.107c.321 0 .607-.143.857-.358l1.714-1.785c.214-.215.5-.358.822-.358h.071c.321 0 .643.143.857.393l1.429 1.607c.285.322.678.5 1.071.5h20.214a20.03 20.03 0 0 0 1.643-5H60.286c-.429 0-.822-.178-1.072-.5Zm7-15.572 1.715-1.786c.214-.214.5-.357.821-.357h.071c.322 0 .643.143.858.357l1.428 1.608a1.41 1.41 0 0 0 1.072.464h3.857c-6.715-8.857-19.322-10.607-28.215-3.929a20.462 20.462 0 0 0-3.928 3.929h21.464c.357.071.643-.072.857-.286Zm-13.821 26c-.429 0-.822-.178-1.072-.464l-1.428-1.607a1.133 1.133 0 0 0-1.607-.072l-.072.072-1.25 1.392a2.038 2.038 0 0 1-1.571.715h-.072c7.536 8.071 20.286 8.464 28.393.857.322-.286.607-.607.929-.929h-22.25v.036Z" fill="#fff"/></g><g clip-path="url(#q)"><path d="M269.993 267h-33.329v11.11h33.329V267Zm-55.548 11.11h-11.109v11.109h11.109V278.11Zm-11.109 55.547h11.109v-33.328h-11.109v33.328Zm22.219-55.547v11.109h11.109V278.11h-11.109Zm0 55.547h11.109v-33.328h-11.109v33.328Zm0-66.657h-11.11v11.11h11.11V267ZM170 267v11.11h33.336V267H170Zm100 33.329v-11.11h-33.336v11.11H270Zm-55.547-11.11v11.11h11.102v-11.11h-11.102Zm-44.446 0v11.11h33.336v-11.11h-33.336Z" fill="#fff"/></g><g clip-path="url(#r)"><path d="M349.398 140c0-3.936-1.522-7.633-4.289-10.417a14.498 14.498 0 0 0-10.096-4.302 14.718 14.718 0 0 0 4.118-10.219c0-8.124-6.569-14.733-14.644-14.733-3.943 0-7.521 1.583-10.158 4.142-.066-3.835-1.571-7.435-4.276-10.157A14.505 14.505 0 0 0 299.699 90c-3.91 0-7.59 1.531-10.356 4.314-2.706 2.722-4.211 6.319-4.277 10.155-2.636-2.559-6.212-4.143-10.155-4.143-8.075 0-14.645 6.61-14.645 14.734 0 3.966 1.574 7.566 4.118 10.219a14.496 14.496 0 0 0-10.096 4.302A14.681 14.681 0 0 0 250 139.998a14.69 14.69 0 0 0 4.288 10.419 14.494 14.494 0 0 0 10.094 4.302 14.724 14.724 0 0 0-4.116 10.217c0 8.124 6.57 14.733 14.645 14.733 3.943 0 7.519-1.583 10.155-4.143.066 3.838 1.574 7.436 4.277 10.157A14.502 14.502 0 0 0 299.699 190a14.5 14.5 0 0 0 10.354-4.317c2.705-2.721 4.21-6.319 4.276-10.157 2.637 2.56 6.213 4.143 10.158 4.143 8.075 0 14.644-6.609 14.644-14.733 0-3.967-1.574-7.565-4.115-10.217a14.502 14.502 0 0 0 10.093-4.302 14.683 14.683 0 0 0 4.289-10.419V140Zm-39.556 10.205v14.433l-10.143-10.205-10.143 10.205v-14.433h-14.345L285.352 140l-10.143-10.205h14.344v-14.431l10.143 10.205 10.144-10.205v14.431h14.344L314.04 140l10.144 10.205H309.84h.002Zm5.233-35.141c0-5.221 4.222-9.469 9.412-9.469s9.412 4.248 9.412 9.469c0 5.222-4.225 9.469-9.412 9.469h-9.412v-9.469Zm-22.031-17.026a9.352 9.352 0 0 1 6.657-2.769c2.412 0 4.821.921 6.655 2.77 3.671 3.692 3.671 9.699 0 13.392l-6.657 6.695-6.655-6.695a9.44 9.44 0 0 1-2.757-6.698c0-2.531.98-4.907 2.757-6.695Zm-18.131 7.555c5.19 0 9.412 4.247 9.412 9.469v9.469h-9.412c-5.19 0-9.412-4.248-9.412-9.469 0-5.222 4.222-9.469 9.412-9.469Zm-16.923 27.712a9.348 9.348 0 0 1 6.657-2.769 9.34 9.34 0 0 1 6.655 2.769l6.655 6.695-6.655 6.698a9.325 9.325 0 0 1-6.657 2.773 9.318 9.318 0 0 1-6.655-2.773c-3.671-3.693-3.671-9.7 0-13.393Zm26.335 31.633c0 5.222-4.222 9.469-9.412 9.469s-9.412-4.247-9.412-9.469c0-5.221 4.222-9.469 9.412-9.469h9.412v9.469Zm22.031 17.026a9.38 9.38 0 0 1-13.312 0c-3.671-3.693-3.671-9.7 0-13.393l6.655-6.697 6.657 6.697a9.441 9.441 0 0 1 2.757 6.696 9.431 9.431 0 0 1-2.757 6.697Zm24.788-10.331a9.324 9.324 0 0 1-6.655 2.774c-5.19 0-9.412-4.247-9.412-9.469v-9.469h9.412c2.513 0 4.878.986 6.655 2.774a9.44 9.44 0 0 1 2.757 6.695c0 2.529-.977 4.91-2.757 6.698v-.003Zm10.269-24.938a9.326 9.326 0 0 1-6.655 2.774 9.331 9.331 0 0 1-6.658-2.774l-6.657-6.697 6.657-6.696a9.383 9.383 0 0 1 13.313 0c3.67 3.693 3.67 9.7 0 13.393Z" fill="#fff"/></g><defs><clipPath id="a"><path fill="#fff" transform="translate(200 360)" d="M0 0h40v40H0z"/></clipPath><clipPath id="b"><path fill="#fff" transform="translate(200 524)" d="M0 0h39.2v30.8H0z"/></clipPath><clipPath id="c"><path fill="#fff" transform="translate(280 440)" d="M0 0h40v40H0z"/></clipPath><clipPath id="d"><path fill="#fff" transform="translate(280 40)" d="M0 0h40v40H0z"/></clipPath><clipPath id="e"><path fill="#fff" transform="translate(280 280)" d="M0 0h40v40H0z"/></clipPath><clipPath id="f"><path fill="#fff" transform="translate(280 200)" d="M0 0h40v40H0z"/></clipPath><clipPath id="g"><path fill="#fff" transform="translate(200 200)" d="M0 0h40v40H0z"/></clipPath><clipPath id="h"><path fill="#fff" transform="translate(120 40)" d="M0 0h40v40H0z"/></clipPath><clipPath id="i"><path fill="#fff" transform="translate(40 520)" d="M0 0h40v40H0z"/></clipPath><clipPath id="j"><path fill="#fff" transform="translate(40 120)" d="M0 0h40v40H0z"/></clipPath><clipPath id="k"><path fill="#fff" transform="translate(40 440)" d="M0 0h40v40H0z"/></clipPath><clipPath id="l"><path fill="#fff" transform="translate(280 360)" d="M0 0h40v40H0z"/></clipPath><clipPath id="m"><path fill="#fff" transform="translate(120 280)" d="M0 0h40v40H0z"/></clipPath><clipPath id="n"><path fill="#fff" transform="translate(40 200)" d="M0 0h40v40H0z"/></clipPath><clipPath id="o"><path fill="#fff" transform="translate(120 360)" d="M0 0h40v40H0z"/></clipPath><clipPath id="p"><path fill="#fff" transform="translate(40 40)" d="M0 0h40v40H0z"/></clipPath><clipPath id="q"><path fill="#fff" transform="translate(200 280)" d="M0 0h40v40H0z"/></clipPath><clipPath id="r"><path fill="#fff" transform="translate(280 120)" d="M0 0h40v40H0z"/></clipPath></defs></svg>