<svg version="1.1" xmlns="http://www.w3.org/2000/svg" width="933.333" height="933.333"
     viewBox="0 0 700.000000 700.000000">
    <path d="M317.1 1c-51 5.3-99.7 20.7-141.5 44.7C88.4 95.7 26.2 181.9 6.6 280c-5.2 25.8-6 35.4-6.1 68.5 0 31.5.4 37.4 4.6 61.5 19 109.9 92.5 206.1 194.4 254.5 32.8 15.6 68.7 26.1 107 31.2 18.3 2.4 66.7 2.4 85 0 65.7-8.8 121.6-32.2 174.5-73.1 19.4-14.9 50.9-47.9 66.2-69.1 33.3-46.2 54.3-98.4 62.9-156.5 2.7-18.3 3.7-57.2 2-77.4C685.6 182.3 593.7 64.1 463.4 19c-22.6-7.8-44.1-12.9-69.9-16.6C380.6.6 330.2-.3 317.1 1zM334 159.6c17.1 2.7 38 10.9 52.5 20.7 7.2 4.8 18.9 14.3 22.8 18.4l2.8 3-15.6 14.3-15.6 14.2-6.2-5.9c-25.2-24.2-64.9-31.6-97.8-18.3-29.4 11.9-49.6 35.1-57.5 66-2.8 11-2.6 34.4.4 45.5 10.9 40 45.7 68.2 86.4 70.2 26.7 1.3 49.6-6.9 69.1-24.7l5.7-5.2 3.8 3.4c2.2 1.8 9.1 8 15.5 13.8l11.6 10.5-5.2 5.3c-13.2 13.6-38 28.2-56.9 33.6-58.4 16.7-119-5.6-152.2-55.9-43.4-65.7-22-154 46.8-193.4 26.6-15.2 57.6-20.5 89.6-15.5zm74.8 108.9c67.6 11 117.2 72 113.9 140.4-3.5 73.3-63 130.2-136.2 130.1-34.8-.1-67.4-12.8-92-36.2l-8.4-7.9 11.7-10.6c6.4-5.9 13.4-12.2 15.4-14.1l3.7-3.5 6.8 6.3c12 11 28.3 19.1 45.3 22.6 10.1 2 32.1 1.5 41.2-1.1 16.3-4.5 31.4-13.2 43.2-25.1 11.6-11.6 19.2-24.4 24.3-41.1 2.4-7.9 2.7-10.4 2.7-24.8.1-17.4-1.2-24-7.3-38.4-8.4-19.8-25.4-37.4-45.4-47.1-34.8-16.7-77.4-10.3-105 15.9l-5.8 5.5-4.2-4c-2.3-2.2-9.2-8.6-15.4-14.3l-11.2-10.2 8.7-8.1c19.4-18.1 41.9-29.2 69.7-34.3 9.8-1.8 33.1-1.8 44.3 0z"/>
</svg>